<?xml version="1.0" encoding="UTF-8" standalone="no"?>
<svg
   xmlns:dc="http://purl.org/dc/elements/1.1/"
   xmlns:cc="http://creativecommons.org/ns#"
   xmlns:rdf="http://www.w3.org/1999/02/22-rdf-syntax-ns#"
   xmlns:svg="http://www.w3.org/2000/svg"
   xmlns="http://www.w3.org/2000/svg"
   xmlns:sodipodi="http://sodipodi.sourceforge.net/DTD/sodipodi-0.dtd"
   xmlns:inkscape="http://www.inkscape.org/namespaces/inkscape"
   viewBox="0 0 5.2 5.2"
   width="52"
   height="52"
   version="1.1"
   id="svg16"
   sodipodi:docname="duck.svg"
   inkscape:version="1.0 (4035a4fb49, 2020-05-01)">
  <metadata
     id="metadata22">
    <rdf:RDF>
      <cc:Work
         rdf:about="">
        <dc:format>image/svg+xml</dc:format>
        <dc:type
           rdf:resource="http://purl.org/dc/dcmitype/StillImage" />
        <dc:title />
      </cc:Work>
    </rdf:RDF>
  </metadata>
  <defs
     id="defs20">
    <inkscape:path-effect
       effect="bspline"
       id="path-effect1925"
       is_visible="true"
       lpeversion="1"
       weight="33.333333"
       steps="2"
       helper_size="0"
       apply_no_weight="true"
       apply_with_weight="true"
       only_selected="false" />
    <inkscape:path-effect
       effect="bspline"
       id="path-effect885"
       is_visible="true"
       lpeversion="1"
       weight="33.333333"
       steps="2"
       helper_size="0"
       apply_no_weight="true"
       apply_with_weight="true"
       only_selected="false" />
  </defs>
  <sodipodi:namedview
     inkscape:document-rotation="0"
     pagecolor="#232929"
     bordercolor="#666666"
     borderopacity="1"
     objecttolerance="10"
     gridtolerance="10"
     guidetolerance="10"
     inkscape:pageopacity="0"
     inkscape:pageshadow="2"
     inkscape:window-width="1366"
     inkscape:window-height="704"
     id="namedview18"
     showgrid="false"
     inkscape:zoom="7.9898869"
     inkscape:cx="46.005708"
     inkscape:cy="24.110555"
     inkscape:window-x="0"
     inkscape:window-y="0"
     inkscape:window-maximized="1"
     inkscape:current-layer="svg16" />
  <g
     id="g838"
     transform="translate(-0.10181685,-0.04478874)">
    <path
       id="path2"
       d="m 2.5954599,0.45248874 c -1.2159083,0 -2.20500006,0.98909156 -2.20500006,2.20499986 0,1.2159082 0.98909176,2.2050001 2.20500006,2.2050001 1.2159082,0 2.2049999,-0.9890919 2.2049999,-2.2050001 0,-1.2159083 -0.9890917,-2.20499986 -2.2049999,-2.20499986 z m 0,0.36750007 c 1.0170843,0 1.8374997,0.82041549 1.8374997,1.83749979 0,0.8979346 -0.6381,1.6408302 -1.4872265,1.8030467 -0.00864,-0.01292 -0.012919,-0.020098 -0.022965,-0.034447 -0.066753,-0.09475 -0.1162804,-0.1722674 -0.1435563,-0.2296887 0.1737019,0.070341 0.2906979,0.1033573 0.3502736,0.1033573 0.043784,0 0.063161,-0.065315 0.063161,-0.2009766 0,-0.2526565 -0.022963,-0.3789846 -0.068904,-0.3789846 -0.068189,0 -0.1952349,0.074647 -0.3904689,0.2239451 C 2.6726758,3.9337486 2.6716359,3.927578 2.6471419,3.8920628 2.5768012,3.704722 2.5437811,3.5396334 2.5437811,3.3924899 c 0,-0.040913 0.00287,-0.079671 0.011486,-0.1205857 0.2497847,0.1220217 0.4507613,0.1837502 0.6029305,0.1837502 0.083976,0 0.2088707,-0.025841 0.3789839,-0.074647 0.1701117,-0.04881 0.2583978,-0.1033573 0.2583978,-0.1607812 0,-0.035173 -0.022962,-0.051679 -0.068907,-0.051679 -0.070333,0 -0.1772899,0.010051 -0.3100771,0.02871 -0.1327889,0.018662 -0.2339934,0.028708 -0.3043362,0.028708 -0.073213,0 -0.1528865,-0.019387 -0.2411723,-0.057416 -0.088284,-0.038046 -0.1320704,-0.089722 -0.1320704,-0.1550453 0,-0.013646 0.00141,-0.022248 0.00575,-0.028708 0.0036,-0.00638 0.00928,-0.010051 0.017222,-0.011482 0.00792,-0.00141 0.01507,-0.00141 0.022964,0 0.00791,0.00141 0.020816,-0.00141 0.03445,0 0.013644,0.00141 0.023684,0.00574 0.034451,0.00574 0.024403,0 0.062448,-7.175e-4 0.1090979,0.00574 0.046657,0.00639 0.081831,0.011482 0.1033573,0.011482 0.083976,0 0.2555273,-0.050254 0.5167964,-0.1492967 0.2605523,-0.099052 0.3904693,-0.1751347 0.3904693,-0.2296853 0,-0.0323 -0.024407,-0.055265 -0.074649,-0.068905 -0.050254,-0.013646 -0.1004935,-0.017219 -0.1435545,-0.017219 -0.03804,0 -0.096178,0.00866 -0.1722658,0.028711 -0.076091,0.020101 -0.1571942,0.045942 -0.2469164,0.074647 -0.089719,0.028708 -0.1478608,0.043783 -0.1780075,0.051679 0.01073,-0.05455 0.01722,-0.093312 0.01722,-0.1263282 0,-0.1277635 -0.035886,-0.2777784 -0.1033573,-0.4478907 C 3.0038725,1.9418689 2.9263526,1.8141049 2.8366321,1.732996 2.7634193,1.6676792 2.6658013,1.6253298 2.5437796,1.6009258 2.4676964,1.5033079 2.3492632,1.4114341 2.1877645,1.3310441 2.026265,1.2506533 1.8819931,1.2104567 1.7571005,1.2104567 c -0.024403,0 -0.064598,0.00794 -0.1148442,0.017219 -0.050247,0.00927 -0.078235,0.014354 -0.091874,0.017221 l -0.091874,0.1263276 0.022965,0.00574 c 0.019383,0 0.052397,-0.00638 0.091874,-0.011483 0.039476,-0.00574 0.06675,-0.00574 0.086132,-0.00574 0.092594,0 0.1959519,0.019385 0.3158198,0.057418 -0.076082,0.038045 -0.1435545,0.061009 -0.2009766,0.07465 -0.00575,0.0029 -0.022249,0.00721 -0.051676,0.011482 -0.02943,0.00426 -0.05455,0.00721 -0.07465,0.011483 -0.0201,0.00426 -0.039483,0.016513 -0.05742,0.028709 -0.017945,0.012201 -0.022965,0.027283 -0.022965,0.045937 0.1521673,-0.016507 0.2627052,-0.02871 0.3387881,-0.02871 0.1033573,0 0.1873398,0.010051 0.2469137,0.02871 -0.2088772,0.024414 -0.3696582,0.099065 -0.4823491,0.2182143 -0.1126904,0.1198677 -0.1722653,0.2849563 -0.1722653,0.493828 0,0.073216 0.00641,0.1385296 0.017224,0.2009761 0.051679,0.3258686 0.1521677,0.8118009 0.2985935,1.4585151 0.040192,0.1873368 0.06173,0.2842363 0.086133,0.3962093 C 1.2295367,4.083706 0.75796022,3.428378 0.75796022,2.6574897 c 0,-1.017084 0.82041498,-1.83750019 1.83749968,-1.83750089 z M 2.853858,1.9626841 c 0.068192,0 0.1162791,0.032298 0.1435553,0.091875 -0.054551,-0.027281 -0.1026426,-0.04019 -0.1378125,-0.04019 -0.078954,0 -0.1277643,0.016508 -0.1492979,0.05168 0.01073,-0.068192 0.05957,-0.1033573 0.1435551,-0.103365 z m -0.9302339,0.045937 c 0.051677,0 0.087568,0.022251 0.1148435,0.057416 -0.0323,-0.013646 -0.058854,-0.022963 -0.080391,-0.022963 -0.045935,0 -0.091874,0.019385 -0.1435553,0.051678 -0.051674,0.033025 -0.077518,0.071779 -0.074648,0.1148456 -0.00791,-0.016507 -0.011483,-0.035167 -0.011483,-0.05168 0,-0.045932 0.020811,-0.083263 0.063164,-0.1090964 0.042348,-0.02584 0.085416,-0.040188 0.1320707,-0.040198 z m 0.999141,0.2526566 c 0.032301,0 0.057415,0.017221 0.08039,0.04019 0.022965,0.022961 0.03445,0.048086 0.03445,0.080389 0,0.030145 -0.011484,0.055991 -0.03445,0.080388 -0.022961,0.024404 -0.047368,0.040189 -0.08039,0.040189 -0.030147,0 -0.055989,-0.015792 -0.080393,-0.040189 -0.024406,-0.024407 -0.040191,-0.050256 -0.040191,-0.080388 0,-0.032303 0.015791,-0.057417 0.040191,-0.080389 0.024404,-0.022966 0.050251,-0.04019 0.080393,-0.04019 z m 0.051678,0.051679 c -0.018663,0 -0.028707,0.010051 -0.028707,0.028709 0,0.021538 0.00928,0.034446 0.028707,0.034446 0.021536,0 0.034447,-0.01292 0.034447,-0.034446 0,-0.019387 -0.012922,-0.028709 -0.034447,-0.028709 z m -0.9761709,0.011483 c 0.03517,0 0.068906,0.017218 0.097615,0.045931 0.028704,0.028708 0.045936,0.056706 0.045936,0.091875 0,0.035167 -0.017226,0.068905 -0.045936,0.097615 -0.028707,0.028707 -0.062449,0.040189 -0.097615,0.040189 -0.03517,0 -0.063164,-0.011482 -0.091874,-0.040189 -0.028708,-0.02871 -0.045936,-0.062448 -0.045936,-0.097615 0,-0.03517 0.017226,-0.063162 0.045936,-0.091875 0.028708,-0.02871 0.056707,-0.045933 0.091874,-0.045931 z m 0.063161,0.057412 c -0.024404,0 -0.034447,0.010051 -0.034447,0.034447 0,0.021537 0.010061,0.034447 0.034447,0.034447 0.024405,0 0.034447,-0.012917 0.034447,-0.034447 0,-0.024407 -0.010061,-0.034447 -0.034447,-0.034447 z"
       style="fill:#d46b4a;fill-opacity:1;stroke-width:0.183748"
       sodipodi:nodetypes="ssssscscccsssccscscsscscsccccscscscscccscccsscccccsccccscsccscccscccsccccsccscccscscscscsssssscsssscsccsssss" />
    <path
       style="opacity:1;fill:#ff9370;fill-opacity:1;stroke:#ff9370;stroke-width:0.06;stroke-linecap:round;stroke-linejoin:round;stroke-miterlimit:4;stroke-dasharray:none;stroke-opacity:1;paint-order:normal"
       d="M 2.0745011,4.25484 C 2.066605,4.207857 2.0570676,4.077954 2.0533175,3.9661669 2.0472022,3.783733 2.0484557,3.7629174 2.0656162,3.7629174 c 0.030852,0 0.1921039,0.062392 0.3349799,0.1296121 0.110187,0.05184 0.1325539,0.066765 0.1325539,0.088448 0,0.014346 0.00313,0.049359 0.00694,0.077805 l 0.00694,0.051721 -0.1218193,0.067277 c -0.1095203,0.060485 -0.3172857,0.1624833 -0.330969,0.1624833 -0.00295,0 -0.011838,-0.03844 -0.019739,-0.085423 z"
       id="path955" />
    <path
       style="opacity:1;fill:#ff784f;fill-opacity:1;stroke:#ff784f;stroke-width:0.221;stroke-linecap:round;stroke-linejoin:round;stroke-miterlimit:4;stroke-dasharray:none;stroke-opacity:1;paint-order:stroke markers fill"
       d="m 30.811887,42.93324 c -0.517185,-0.09564 -1.150818,-0.283158 -2.00905,-0.59455 -0.322693,-0.117082 -0.621876,-0.231976 -0.661456,-0.260348 -0.364441,-0.298276 -0.913115,-0.373826 -1.116327,-0.651234 -0.405768,-0.553921 -0.35568,-1.009592 -0.198222,-1.501967 0.09897,-0.309467 0.386069,-0.410704 0.724213,-0.633616 l 0.439211,-0.326156 c 1.788373,-1.32804 3.139748,-1.981437 3.433538,-1.660136 0.335758,0.3672 0.492562,1.602397 0.46398,3.654929 -0.01398,1.004167 -0.0234,1.14743 -0.09193,1.398355 -0.164878,0.603698 -0.324169,0.696739 -0.983961,0.574723 z"
       id="path1023"
       transform="scale(0.1)"
       sodipodi:nodetypes="sscsscssssss" />
    <path
       style="opacity:1;fill:#ffc1ad;fill-opacity:1;stroke:#ffc1ad;stroke-width:0;stroke-linecap:round;stroke-linejoin:round;stroke-miterlimit:4;stroke-dasharray:none;stroke-opacity:1;paint-order:normal"
       d="m 2.5173922,4.1461157 c -0.00309,-0.00806 -0.0043,-0.055017 -0.00269,-0.1043543 l 0.00293,-0.089703 0.03957,-0.012938 c 0.021764,-0.00712 0.065213,-0.015618 0.096553,-0.018893 0.067242,-0.00703 0.066673,-0.00795 0.07676,0.1245163 0.0062,0.081402 0.00591,0.082809 -0.018811,0.092208 -0.013808,0.00525 -0.061913,0.012756 -0.1068982,0.01668 -0.067019,0.00585 -0.082808,0.00449 -0.087414,-0.00752 z"
       id="path959" />
  </g>
</svg>
