<?xml version="1.0" encoding="UTF-8" standalone="no"?>
<svg
   xmlns:dc="http://purl.org/dc/elements/1.1/"
   xmlns:cc="http://creativecommons.org/ns#"
   xmlns:rdf="http://www.w3.org/1999/02/22-rdf-syntax-ns#"
   xmlns:svg="http://www.w3.org/2000/svg"
   xmlns="http://www.w3.org/2000/svg"
   xmlns:sodipodi="http://sodipodi.sourceforge.net/DTD/sodipodi-0.dtd"
   xmlns:inkscape="http://www.inkscape.org/namespaces/inkscape"
   width="128"
   height="128"
   version="1"
   id="svg22"
   sodipodi:docname="fox.svg"
   inkscape:version="0.92.4 (5da689c313, 2019-01-14)">
  <metadata
     id="metadata28">
    <rdf:RDF>
      <cc:Work
         rdf:about="">
        <dc:format>image/svg+xml</dc:format>
        <dc:type
           rdf:resource="http://purl.org/dc/dcmitype/StillImage" />
        <dc:title></dc:title>
      </cc:Work>
    </rdf:RDF>
  </metadata>
  <defs
     id="defs26" />
  <sodipodi:namedview
     pagecolor="#202020"
     bordercolor="#666666"
     borderopacity="1"
     objecttolerance="10"
     gridtolerance="10"
     guidetolerance="10"
     inkscape:pageopacity="0"
     inkscape:pageshadow="2"
     inkscape:window-width="1366"
     inkscape:window-height="712"
     id="namedview24"
     showgrid="false"
     inkscape:zoom="1.4526992"
     inkscape:cx="-60.899368"
     inkscape:cy="58.85782"
     inkscape:window-x="0"
     inkscape:window-y="28"
     inkscape:window-maximized="1"
     inkscape:current-layer="svg22" />
  <path
     inkscape:connector-curvature="0"
     id="path852"
     d="m 60.617365,127.89125 c -0.643901,-0.0295 -1.073169,-0.0744 -0.953927,-0.0997 0.119245,-0.0253 -0.272689,-0.0743 -0.870956,-0.1088 -3.930347,-0.22706 -9.183536,-1.17926 -13.047709,-2.36503 -0.572356,-0.17564 -1.118695,-0.3399 -1.214089,-0.36503 -0.09539,-0.0251 -0.934414,-0.31757 -1.864493,-0.64986 -7.528252,-2.68966 -14.61282,-6.98394 -20.50469,-12.42884 C 13.527974,103.89546 7.212609,93.68808 4.03148,82.5709 2.473046,77.1246 1.781325,72.261406 1.675321,66.005747 1.580281,60.396784 2.064332,55.769154 3.294103,50.529998 4.452055,45.596812 6.505406,40.062452 8.6623,36.061193 l 0.501621,-0.930559 0.05462,-1.733133 c 0.03077,-0.976333 0.128475,-2.225416 0.22376,-2.860502 0.648444,-4.321981 2.561946,-8.250349 6.172931,-12.672865 0.825055,-1.010478 1.258369,-1.337869 1.928305,-1.456939 0.447323,-0.0795 1.196659,0.148112 1.571724,0.477424 0.53433,0.469147 0.674218,0.897299 0.715768,2.190734 0.02533,0.788249 0.07221,1.177854 0.151384,1.258017 0.09552,0.09672 0.337625,-0.09025 1.448048,-1.118263 7.911399,-7.324256 17.202538,-12.3967661 27.448042,-14.9852951 5.448948,-1.376679 10.087939,-1.951774 15.728016,-1.949803 2.952727,10e-4 4.300501,0.07389 7.035615,0.380349 11.82627,1.325073 23.198932,6.137392 32.465636,13.7377651 2.90285,2.380863 6.08351,5.559996 8.59477,8.59063 4.02203,4.853866 7.52694,10.816695 9.96615,16.95518 1.44593,3.638848 2.79934,8.458578 3.46083,12.324746 0.4224,2.468728 0.81475,5.977256 0.83735,7.487755 0.006,0.417577 0.0295,0.539378 0.0744,0.390243 0.0826,-0.274213 0.14602,2.933919 0.0977,4.943077 -0.0209,0.869212 -0.0628,1.406458 -0.0981,1.257451 -0.045,-0.190034 -0.0645,-0.09653 -0.0723,0.346882 -0.006,0.333874 -0.0689,1.270458 -0.14001,2.081295 -1.88372,21.476038 -14.28777,40.382058 -32.693944,49.831468 -5.231805,2.68592 -10.247895,4.46827 -15.96558,5.673 -3.505819,0.73869 -8.523814,1.38876 -11.090898,1.4368 -0.464114,0.009 -0.54579,0.0269 -0.346883,0.0776 0.168845,0.043 -0.08989,0.0699 -0.737126,0.0767 -0.548508,0.006 -1.719237,0.0248 -2.601619,0.0423 -0.882383,0.0175 -2.13116,0.008 -2.775061,-0.0219 z m 5.804141,-4.34799 c 5.143254,-0.2146 9.399338,-0.90062 14.198439,-2.28859 16.423961,-4.75006 30.033465,-16.46181 37.047365,-31.88135 2.86108,-6.28988 4.40076,-12.07333 5.14739,-19.335063 0.17576,-1.709527 0.14692,-7.975478 -0.0455,-9.886155 -0.7508,-7.454733 -2.57137,-13.83236 -5.82992,-20.422713 -1.15991,-2.345905 -2.04529,-3.893328 -2.25034,-3.933044 -0.17806,-0.03448 -0.16912,0.179051 0.0829,1.981829 0.39182,2.80246 0.36957,6.65358 -0.0431,7.462515 -0.36186,0.709309 -1.01759,1.117673 -1.79992,1.120925 -1.08057,0.0046 -1.556,-0.443623 -2.23916,-2.110487 -0.95848,-2.338648 -2.62978,-5.492689 -3.93932,-7.43421 -2.45768,-3.643735 -5.59753,-6.991136 -9.146613,-9.751225 -1.887509,-1.467899 -5.374009,-3.665925 -5.648064,-3.56076 -0.179458,0.06886 -0.167162,0.08542 1.109974,1.493506 4.166536,4.593801 7.408693,10.101817 9.896093,16.812247 2.30378,6.215085 3.64969,13.731863 3.27633,18.298057 -0.1877,2.295595 -0.44323,2.972258 -1.30644,3.459481 -1.2226,0.690079 -2.67106,0.0031 -2.94746,-1.398053 -0.2086,-1.057436 -0.79652,-3.276639 -1.1601,-4.378968 -0.76197,-2.310181 -2.014994,-5.183796 -2.26037,-5.183796 -0.175262,0 -0.174169,0.01861 0.07637,1.30081 0.280803,1.437016 0.532457,3.191148 0.70916,4.943077 0.201729,2.000125 0.200306,5.979206 -0.0028,7.848219 -0.718698,6.613418 -2.800141,11.972498 -6.517464,16.780448 -0.957432,1.23832 -3.750139,4.05236 -5.024664,5.06303 -5.315,4.21468 -11.665443,6.82079 -18.644939,7.65152 -1.836807,0.21862 -5.756147,0.22125 -7.501337,0.005 -3.46261,-0.429 -6.229567,-1.22216 -8.9843,-2.57536 -1.356336,-0.66628 -3.130026,-1.77278 -4.049175,-2.52605 -1.015757,-0.83243 -2.251713,-2.11314 -2.45608,-2.54501 -0.35256,-0.74503 -0.241333,-1.54666 0.297533,-2.14435 0.627556,-0.69606 1.139058,-0.78877 2.804033,-0.50824 2.655479,0.44741 5.916235,0.24607 8.967303,-0.55371 1.510872,-0.39604 2.623307,-0.80514 3.994754,-1.46908 1.118609,-0.54154 1.512423,-0.77921 4.538247,-2.7389 2.703812,-1.75113 4.093461,-2.36952 5.944568,-2.6453 1.274377,-0.18987 1.468388,-0.24207 1.499477,-0.4035 0.03653,-0.18968 -0.76683,-1.0472 -1.40458,-1.49926 -1.432887,-1.01568 -3.126577,-1.52272 -5.086445,-1.52272 -1.746135,0 -2.062752,0.0774 -6.185542,1.51168 -2.116751,0.73641 -3.326342,1.07647 -4.866256,1.36808 -0.911115,0.17254 -1.310508,0.19676 -3.208664,0.19462 -2.015897,-0.002 -2.244075,-0.0187 -3.252024,-0.23406 -4.677083,-0.99932 -7.984461,-3.39526 -9.721832,-7.042704 -1.579022,-3.315001 -1.290057,-6.716242 0.74499,-8.768864 1.082329,-1.091677 2.274568,-1.591725 3.968695,-1.664551 0.611821,-0.0263 1.282615,-0.0013 1.678879,0.06266 0.493335,0.07958 0.684909,0.08155 0.758836,0.0078 0.141512,-0.141225 0.177116,-1.771954 0.0582,-2.665578 -0.05496,-0.413018 -0.179483,-1.085495 -0.276712,-1.494392 -0.361812,-1.5216 -0.103289,-1.97391 2.095181,-3.665817 1.361561,-1.047833 3.379016,-2.328174 5.853644,-3.71491 2.358182,-1.321483 3.501671,-2.222523 4.217082,-3.322953 0.364324,-0.560398 0.682634,-1.3347 0.682634,-1.66054 0,-0.414159 -0.149634,-0.432615 -3.598906,-0.443889 -2.442935,-0.008 -3.467357,-0.04476 -4.292672,-0.154109 -4.40827,-0.584059 -6.787682,-2.133146 -8.097642,-5.271866 -0.471379,-1.129449 -0.505645,-1.315863 -0.392206,-2.133734 0.363232,-2.618834 1.671314,-5.652376 3.44699,-7.993827 0.428938,-0.565607 0.448566,-0.696098 0.104722,-0.696098 -0.606235,0 -3.163861,1.045294 -4.297607,1.756421 -1.470313,0.922232 -3.286593,2.586913 -4.108977,3.766013 -0.443133,0.635348 -0.849763,0.938484 -1.442125,1.075077 -0.383739,0.08848 -0.60081,0.06852 -1.855352,-0.170684 -2.321088,-0.442558 -3.43048,-0.557393 -5.384842,-0.557393 -1.799912,0 -2.904975,0.101709 -5.040082,0.463912 -1.615991,0.274135 -1.891983,0.156588 -3.661965,-1.559653 -2.08124,-2.018048 -3.675689,-4.441639 -4.766547,-7.245233 -0.233818,-0.600931 -0.417401,-0.953927 -0.496107,-0.953927 -0.183443,0 -0.616235,0.699499 -1.341388,2.168016 -1.466011,2.968842 -2.007315,5.74654 -1.766013,9.062308 0.141381,1.942762 0.13128,2.108252 -0.163633,2.679568 -1.429101,2.768542 -2.138625,4.192773 -2.48852,4.995211 C 8.005012,48.779149 6.560595,54.377271 5.928735,60.97595 5.74165,62.929721 5.711627,68.208031 5.877925,69.908178 6.938124,80.74694 10.518032,90.44125 16.630901,99.02701 c 10.426614,14.64458 27.156507,23.73151 45.129841,24.5125 2.212216,0.0961 2.442472,0.0963 4.660748,0.004 z m -9.378055,-7.38641 c -0.438223,-0.11652 -1.057335,-0.68163 -1.236019,-1.1282 -0.199182,-0.49781 -0.182588,-0.96934 0.122686,-3.48624 0.284159,-2.3428 0.389665,-2.71106 0.899972,-3.14138 0.401221,-0.33833 0.768749,-0.46609 1.334629,-0.46394 0.639317,0.002 1.115951,0.21753 1.514982,0.68371 0.5632,0.65797 0.576136,0.84161 0.25394,3.60462 -0.315978,2.7097 -0.432506,3.12542 -0.996679,3.55574 -0.580397,0.44269 -1.188092,0.56326 -1.893513,0.37569 z m 12.075279,-0.18348 c -0.441887,-0.14081 -1.094252,-0.80973 -1.208588,-1.23928 -0.149069,-0.56003 -0.702217,-4.51946 -0.700103,-5.01134 0.007,-1.61237 1.879644,-2.52377 3.188492,-1.55177 0.625452,0.46448 0.701462,0.6869 1.066823,3.12178 0.184527,1.22975 0.335427,2.47005 0.335335,2.75623 -1.73e-4,0.65 -0.201723,1.11093 -0.670433,1.53352 -0.530302,0.47811 -1.280345,0.62385 -2.011526,0.39086 z m -24.1832,-2.974 c -0.727624,-0.36258 -1.069296,-0.92668 -1.071364,-1.7688 -9.98e-4,-0.40537 0.137994,-0.82483 0.925967,-2.79447 0.801608,-2.00373 0.974514,-2.36488 1.277059,-2.66742 1.250733,-1.25073 3.403596,-0.34478 3.396714,1.42938 -0.0017,0.45769 -0.113315,0.79623 -0.926619,2.81252 -0.988722,2.45118 -1.159719,2.73482 -1.838586,3.0498 -0.516076,0.23946 -1.208294,0.2155 -1.763171,-0.061 z m -10.345343,-5.80685 c -0.739318,-0.22766 -1.377496,-1.107 -1.376064,-1.89608 0.0011,-0.5991 0.211211,-0.96231 1.724387,-2.98066 1.668873,-2.22602 1.861923,-2.40613 2.683245,-2.50341 1.267925,-0.15016 2.439497,1.0673 2.216093,2.3029 -0.08894,0.49189 -0.231927,0.71895 -1.658817,2.63406 -1.456374,1.95469 -1.82697,2.33695 -2.407248,2.48307 -0.479917,0.12084 -0.681727,0.11404 -1.181596,-0.0399 z M 25.890759,98.7053 c -0.814918,-0.30265 -1.280781,-0.91239 -1.33385,-1.74583 -0.04371,-0.68644 0.124961,-1.18991 0.527743,-1.57536 0.154422,-0.14777 1.080767,-0.89703 2.058542,-1.66502 1.921168,-1.50898 2.341255,-1.73145 3.054122,-1.61746 1.046623,0.16736 1.717644,0.95855 1.71361,2.0205 -0.0023,0.59981 -0.207277,1.0874 -0.616231,1.46572 -0.522959,0.48379 -3.588329,2.86817 -3.883688,3.02091 -0.399519,0.20659 -1.103508,0.2513 -1.520248,0.0965 z M 68.942547,92.10845 C 78.128356,91.01048 86.27125,86.19179 90.92402,79.10057 94.86177,73.0991 96.304516,65.858872 95.209625,57.593844 94.614158,53.098821 93.191548,48.09206 91.060622,42.991733 c -0.604832,-1.447652 -0.596378,-2.103274 0.03683,-2.854224 0.466003,-0.552675 1.317573,-0.819496 2.015588,-0.631541 0.634985,0.170984 1.663007,0.945535 2.939821,2.214969 1.289805,1.282351 2.047986,2.19447 3.246335,3.905456 0.777554,1.110184 0.862984,1.205217 0.979104,1.089096 0.14075,-0.140748 -1.438212,-4.828434 -2.689069,-7.983388 C 94.097259,29.924499 89.672026,24.854897 82.341042,21.263594 79.98406,20.108953 77.013973,19.011897 74.23069,18.267883 c -1.803844,-0.482196 -2.051612,-0.579648 -2.481747,-0.976135 -1.16134,-1.070483 -0.677034,-2.946912 0.870658,-3.373342 0.426997,-0.117652 1.170011,-0.02879 3.477408,0.41583 9.717347,1.872505 19.185763,6.291189 26.363071,12.303018 2.46035,2.060832 4.79365,4.402043 6.67384,6.696486 0.47247,0.576575 0.82793,0.80016 0.82722,0.520325 -0.001,-0.503728 -1.13697,-4.146743 -1.78952,-5.74036 -0.91911,-2.244566 -1.57265,-3.371469 -3.16067,-5.449925 -0.27008,-0.353502 -2.53546,-2.357852 -3.9384,-3.484605 C 90.331675,10.552786 77.094707,6.0376149 63.392426,6.3263689 c -3.413675,0.07194 -5.89867,0.304768 -9.001357,0.843377 -10.557901,1.832793 -20.166571,6.3524071 -28.375244,13.3468121 -1.195463,1.018625 -4.370325,4.083793 -4.522942,4.366673 -0.06423,0.119045 -0.018,0.274763 0.193069,0.650406 0.587065,1.044804 1.527553,2.320148 2.329045,3.158291 l 0.834939,0.873118 0.994868,-0.141455 c 2.936907,-0.417583 6.093489,-0.424261 8.824068,-0.01866 l 1.585315,0.235479 1.146386,-1.164236 c 1.666168,-1.692112 3.037848,-2.683822 5.135537,-3.712934 2.765255,-1.356616 5.579772,-1.989721 8.828268,-1.985852 1.820887,0.0021 3.157925,0.152177 3.659505,0.410576 0.996003,0.513111 1.362035,1.63178 0.875692,2.676277 -0.235292,0.505322 -0.493582,0.720079 -1.506499,1.252588 -2.10059,1.10432 -4.018821,3.145552 -5.236732,5.572521 -0.46207,0.920782 -0.947152,2.282368 -1.124207,3.155553 -0.103249,0.509207 -0.09772,0.562865 0.102553,0.994126 0.480147,1.033936 1.623463,1.848948 3.133585,2.233772 1.393718,0.355162 1.977359,0.397347 5.186494,0.374872 3.414279,-0.02391 4.029963,0.03353 5.290705,0.493649 1.281535,0.467704 2.17758,1.11782 2.494361,1.809762 0.20419,0.446007 0.212627,0.527952 0.170115,1.651976 -0.05467,1.445587 -0.247762,2.234306 -0.841513,3.43743 -0.975737,1.97714 -2.557319,3.5171 -5.187795,5.051268 -3.235393,1.886972 -4.840281,2.873469 -5.773283,3.548739 l -1.028991,0.744743 0.05064,0.400782 c 0.203662,1.611709 0.245864,2.25812 0.204502,3.132484 -0.08425,1.780943 -0.495721,3.191091 -1.254328,4.298676 -0.327131,0.47762 -0.508349,0.650012 -0.882499,0.839522 -0.624,0.316063 -1.134624,0.3123 -2.098275,-0.01546 -1.804576,-0.613783 -3.133918,-0.497367 -3.670092,0.321405 -0.685797,1.047257 -0.430885,3.003659 0.609217,4.675633 0.48833,0.784995 1.585678,1.926749 2.334599,2.42907 1.100386,0.738058 2.5316,1.320738 4.046739,1.647518 1.13975,0.24581 4.118022,0.22222 5.430693,-0.043 1.253251,-0.25324 2.683728,-0.68836 5.178357,-1.575176 3.163353,-1.124532 4.460033,-1.370651 6.720851,-1.275662 3.18555,0.133836 5.95595,1.239371 8.033192,3.205658 1.160092,1.09812 1.972963,2.39349 2.205815,3.51513 0.162654,0.78351 0.07063,1.87298 -0.210014,2.48614 -0.435036,0.9505 -1.386816,1.70511 -2.440937,1.93527 -0.238482,0.0521 -0.886789,0.13572 -1.440684,0.1859 -2.159096,0.19558 -2.92221,0.53872 -6.694495,3.01026 -2.014555,1.3199 -3.203869,1.99029 -4.521521,2.5487 -2.18683,0.92675 -4.180337,1.50396 -6.531235,1.89109 -1.665121,0.27419 -1.812079,0.3735 -1.043629,0.70519 2.071523,0.89418 4.761425,1.49861 7.873872,1.76929 0.843834,0.0734 4.355845,-0.0328 5.463401,-0.16519 z M 57.86302,17.543222 c -1.37178,-0.497504 -1.732989,-2.349286 -0.657382,-3.370146 0.135532,-0.128629 0.394863,-0.295889 0.57629,-0.371674 0.512326,-0.214013 3.211908,-0.495453 4.886295,-0.509414 l 1.487172,-0.01245 0.375269,0.262844 c 0.206399,0.144564 0.493266,0.453698 0.637483,0.686964 0.490507,0.793377 0.309378,1.917996 -0.406069,2.521252 -0.463921,0.391171 -0.745376,0.460295 -2.287812,0.561871 -0.806662,0.05312 -1.93495,0.152036 -2.507306,0.219807 -1.237039,0.146475 -1.72316,0.148993 -2.10394,0.01084 z"
     style="fill:#D35D6E;fill-opacity:1;stroke:#7c5cff;stroke-width:0.26772696;stroke-miterlimit:4;stroke-dasharray:none;stroke-opacity:1;paint-order:stroke fill markers" />
</svg>
